<svg xmlns="http://www.w3.org/2000/svg" width="26.429" height="26.425" viewBox="0 0 26.429 26.425">
  <g id="basketball-silhouette" transform="translate(0 -0.003)">
    <g id="Group_209" data-name="Group 209" transform="translate(0 0.003)">
      <g id="Group_208" data-name="Group 208">
        <path id="Path_871" data-name="Path 871" d="M15.9,22.076,7.317,31.508a13.168,13.168,0,0,0,7.962,3.2,12.593,12.593,0,0,0,.481-3.345,10.547,10.547,0,0,1,2.208-7.407Z" transform="translate(-2.749 -8.297)" fill="#7c4dff"/>
        <path id="Path_872" data-name="Path 872" d="M10.568,18.2A10.573,10.573,0,0,1,3.4,21.1a12.729,12.729,0,0,0-3.212.765,13.184,13.184,0,0,0,3.86,7.651l8.582-9.43Z" transform="translate(-0.072 -6.843)" fill="#7c4dff"/>
        <path id="Path_873" data-name="Path 873" d="M19.74,12.659l8.666-9.525A13.158,13.158,0,0,0,20.368.012a12.6,12.6,0,0,0-.488,3.36,10.578,10.578,0,0,1-2.2,7.408Z" transform="translate(-6.642 -0.006)" fill="#7c4dff"/>
        <path id="Path_874" data-name="Path 874" d="M23.991,17.277a10.571,10.571,0,0,1,7.168-2.893,12.776,12.776,0,0,0,3.378-.831A13.177,13.177,0,0,0,30.6,5.871L21.925,15.4Z" transform="translate(-8.238 -2.208)" fill="#7c4dff"/>
        <path id="Path_875" data-name="Path 875" d="M21.85,32.814a13.344,13.344,0,0,1-.455,3.363A13.2,13.2,0,0,0,30.716,32.2l-6.869-6.249A9.767,9.767,0,0,0,21.85,32.814Z" transform="translate(-8.039 -9.751)" fill="#7c4dff"/>
        <path id="Path_876" data-name="Path 876" d="M9.907,13.634,3.131,7.47A13.194,13.194,0,0,0,.037,17.009a13.225,13.225,0,0,1,3.221-.741A9.746,9.746,0,0,0,9.907,13.634Z" transform="translate(0 -2.809)" fill="#7c4dff"/>
        <path id="Path_877" data-name="Path 877" d="M36.225,19.494a13.4,13.4,0,0,1-3.4.805,9.762,9.762,0,0,0-6.649,2.634l6.872,6.251A13.182,13.182,0,0,0,36.225,19.494Z" transform="translate(-9.838 -7.327)" fill="#7c4dff"/>
        <path id="Path_878" data-name="Path 878" d="M14.644,3.371A13.265,13.265,0,0,1,15.105,0,13.19,13.19,0,0,0,5.87,4.072l6.778,6.168A9.744,9.744,0,0,0,14.644,3.371Z" transform="translate(-2.206 -0.003)" fill="#7c4dff"/>
      </g>
    </g>
  </g>
</svg>
