<svg xmlns="http://www.w3.org/2000/svg" width="25.442" height="26.213" viewBox="0 0 25.442 26.213">
  <g id="breath" transform="translate(-7.529)">
    <path id="Path_879" data-name="Path 879" d="M20.25,4.443V.771A.771.771,0,0,1,21.021,0H32.2a.771.771,0,0,1,.771.771V25.442a.771.771,0,0,1-.771.771h-.771a.771.771,0,0,1-.736-.541l-1.064-3.409-4.6.7A3.564,3.564,0,0,1,20.965,20a3.524,3.524,0,0,1-.042-.54.771.771,0,0,1,.228-.547l1.9-1.886-2.4-1.431a.771.771,0,0,1-.377-.662V13.119H19.241a2.063,2.063,0,0,1-1.855-2.989ZM12.361,22.564a.771.771,0,0,1,1.09,1.09A3.469,3.469,0,1,1,11,17.732h6.553a.771.771,0,0,1,0,1.542H11a1.927,1.927,0,1,0,1.363,3.29Zm3.648-7.531a.771.771,0,1,1,0,1.542H11.384a2.7,2.7,0,1,1,1.908-4.606.771.771,0,1,1-1.09,1.09,1.156,1.156,0,1,0-.818,1.974Z" transform="translate(0)" fill="#7c4dff"/>
  </g>
</svg>
