<svg xmlns="http://www.w3.org/2000/svg" width="26.213" height="26.213" viewBox="0 0 26.213 26.213">
  <g id="diagram" transform="translate(0 -0.003)">
    <path id="Path_880" data-name="Path 880" d="M25.445,186.928h-.819V171.774a.768.768,0,0,0-.768-.768H20.786a.768.768,0,0,0-.768.768v15.154H18.482V176.894a.768.768,0,0,0-.768-.768H14.642a.768.768,0,0,0-.768.768v10.034H12.338v-7.219a.768.768,0,0,0-.768-.768H8.5a.768.768,0,0,0-.768.768v7.219H6.195v-5.376a.768.768,0,0,0-.768-.768H2.355a.768.768,0,0,0-.768.768v5.376H.768a.768.768,0,0,0,0,1.536H25.445a.768.768,0,0,0,0-1.536Z" transform="translate(0 -162.248)" fill="#7c4dff"/>
    <path id="Path_881" data-name="Path 881" d="M.768,16.5A26.813,26.813,0,0,0,15.4,11.657,28.373,28.373,0,0,0,23.957,2.88L24.7,5.663a.832.832,0,0,0,.941.543.761.761,0,0,0,.543-.941L24.929.572a.768.768,0,0,0-.941-.543L19.3,1.287a.768.768,0,1,0,.4,1.484l3.023-.81a26.659,26.659,0,0,1-8.17,8.422A25.269,25.269,0,0,1,.768,14.968a.768.768,0,1,0,0,1.536Z" transform="translate(0 0)" fill="#7c4dff"/>
  </g>
</svg>
