<svg id="gallery-edit" xmlns="http://www.w3.org/2000/svg" width="19.066" height="19.066" viewBox="0 0 19.066 19.066">
  <path id="Vector" d="M3.178,1.589A1.589,1.589,0,1,1,1.589,0,1.589,1.589,0,0,1,3.178,1.589Z" transform="translate(5.561 4.767)" fill="none" stroke="#fff" stroke-linecap="round" stroke-linejoin="round" stroke-width="1"/>
  <path id="Vector-2" data-name="Vector" d="M8.739,0H5.561C1.589,0,0,1.589,0,5.561v4.767c0,3.972,1.589,5.561,5.561,5.561h4.767c3.972,0,5.561-1.589,5.561-5.561V6.355" transform="translate(1.589 1.589)" fill="none" stroke="#fff" stroke-linecap="round" stroke-linejoin="round" stroke-width="1"/>
  <path id="Vector-3" data-name="Vector" d="M3.288.468.4,3.351a.932.932,0,0,0-.238.485L.007,4.94a.52.52,0,0,0,.62.62l1.1-.159a1.031,1.031,0,0,0,.485-.238L5.1,2.279a1.107,1.107,0,0,0,0-1.8A1.106,1.106,0,0,0,3.288.468Z" transform="translate(11.917 1.59)" fill="none" stroke="#fff" stroke-linecap="round" stroke-linejoin="round" stroke-width="1"/>
  <path id="Vector-4" data-name="Vector" d="M0,0A2.609,2.609,0,0,0,1.8,1.8" transform="translate(14.792 2.471)" fill="none" stroke="#fff" stroke-linecap="round" stroke-linejoin="round" stroke-width="1"/>
  <path id="Vector-5" data-name="Vector" d="M0,5.523l3.917-2.63A1.79,1.79,0,0,1,6.014,3l.262.23a1.771,1.771,0,0,0,2.24,0L11.821.4a1.771,1.771,0,0,1,2.24,0l1.295,1.112" transform="translate(2.121 9.531)" fill="none" stroke="#fff" stroke-linecap="round" stroke-linejoin="round" stroke-width="1"/>
  <path id="Vector-6" data-name="Vector" d="M0,0H19.066V19.066H0Z" fill="none" opacity="0"/>
</svg>
