<svg xmlns="http://www.w3.org/2000/svg" width="24" height="24" viewBox="0 0 24 24">
  <g id="left-arrow" transform="translate(-7.999 32.999) rotate(-90)">
    <path id="Path_89" data-name="Path 89" d="M32.2,22.283a1,1,0,0,0-1.414.019l-3.2,3.284a2,2,0,0,0-.009,2.819L30.783,31.7a1,1,0,1,0,1.432-1.4l-3.208-3.311L32.215,23.7A1,1,0,0,0,32.2,22.283Z" transform="translate(-9 -7)"/>
    <path id="Path_90" data-name="Path 90" d="M53.648,31.99A.981.981,0,0,0,53.79,32a1,1,0,0,0,.989-.859,11.817,11.817,0,0,0,0-3.282,1,1,0,0,0-1.98.282,9.768,9.768,0,0,1,0,2.718,1,1,0,0,0,.849,1.131Z" transform="translate(-21.895 -9.501)"/>
    <path id="Path_91" data-name="Path 91" d="M21,8a12,12,0,1,0,10.69,17.455,1,1,0,1,0-1.781-.91,10,10,0,1,1,0-9.09,1,1,0,1,0,1.781-.91A11.958,11.958,0,0,0,21,8Z"/>
  </g>
</svg>
