<svg xmlns="http://www.w3.org/2000/svg" width="35.496" height="26.425" viewBox="0 0 35.496 26.425">
  <g id="lotus" transform="translate(0 -65.419)">
    <path id="Path_882" data-name="Path 882" d="M321.008,352.807a12.975,12.975,0,0,0-1.6-1.359,16.406,16.406,0,0,1-12.3,5.668,12.882,12.882,0,0,0,13.9-2.837,1.04,1.04,0,0,0,0-1.471Z" transform="translate(-285.817 -266.199)" fill="#fff"/>
    <path id="Path_883" data-name="Path 883" d="M1.9,351.448a12.992,12.992,0,0,0-1.6,1.359,1.04,1.04,0,0,0,0,1.471,12.881,12.881,0,0,0,13.9,2.837,16.406,16.406,0,0,1-12.3-5.668Z" transform="translate(0 -266.199)" fill="#fff"/>
    <path id="Path_884" data-name="Path 884" d="M12.906,235.254a14.389,14.389,0,0,0,5.882,1.862,17.4,17.4,0,0,1-8.73-12.31,14.336,14.336,0,0,0-3.066.465,1.041,1.041,0,0,0-.762,1.281,14.332,14.332,0,0,0,6.677,8.7Z" transform="translate(-5.765 -148.337)" fill="#fff"/>
    <path id="Path_885" data-name="Path 885" d="M324.148,237.117a14.329,14.329,0,0,0,12.559-10.563,1.041,1.041,0,0,0-.762-1.281,14.33,14.33,0,0,0-3.066-.465,17.4,17.4,0,0,1-8.73,12.31Z" transform="translate(-301.675 -148.338)" fill="#fff"/>
    <path id="Path_886" data-name="Path 886" d="M95.213,131.98A17.885,17.885,0,0,1,93.774,116a15.322,15.322,0,0,0-3.624-1.492,1.04,1.04,0,0,0-1.274.735,15.314,15.314,0,0,0,6.336,16.733Z" transform="translate(-82.228 -45.657)" fill="#fff"/>
    <path id="Path_887" data-name="Path 887" d="M324.684,131.981a15.314,15.314,0,0,0,6.337-16.733,1.04,1.04,0,0,0-1.274-.735A15.319,15.319,0,0,0,326.123,116a17.886,17.886,0,0,1-1.439,15.976Z" transform="translate(-302.174 -45.656)" fill="#fff"/>
    <path id="Path_888" data-name="Path 888" d="M184.706,65.724a1.04,1.04,0,0,0-1.471,0,15.809,15.809,0,0,0,0,22.356,1.04,1.04,0,0,0,1.471,0,15.809,15.809,0,0,0,0-22.356Z" transform="translate(-166.223)" fill="#fff"/>
  </g>
</svg>
