<svg xmlns="http://www.w3.org/2000/svg" width="15.302" height="16.693" viewBox="0 0 15.302 16.693">
  <g id="notification" transform="translate(0.002)">
    <path id="Path_956" data-name="Path 956" d="M137.52,450.087A2.612,2.612,0,0,0,140.076,448h-5.111A2.613,2.613,0,0,0,137.52,450.087Zm0,0" transform="translate(-130.566 -433.394)" fill="#fff"/>
    <path id="Path_957" data-name="Path 957" d="M11.831,49.623h-.008a4.875,4.875,0,0,1-4.869-4.869,4.825,4.825,0,0,1,.465-2.063c-.153-.015-.308-.024-.465-.024a4.869,4.869,0,0,0-4.869,4.869v1.939a4.664,4.664,0,0,1-1.661,3.57A1.217,1.217,0,0,0,.042,54.3a1.276,1.276,0,0,0,1.251.892h11.32a1.275,1.275,0,0,0,1.271-.965,1.219,1.219,0,0,0-.415-1.191A4.628,4.628,0,0,1,11.831,49.623Zm0,0" transform="translate(0 -41.277)" fill="#fff"/>
    <path id="Path_958" data-name="Path 958" d="M262.967,3.478A3.478,3.478,0,1,1,259.489,0,3.478,3.478,0,0,1,262.967,3.478Zm0,0" transform="translate(-247.666)" fill="#fff"/>
  </g>
</svg>
