<svg id="pray" xmlns="http://www.w3.org/2000/svg" width="22.923" height="26.213" viewBox="0 0 22.923 26.213">
  <path id="Path_889" data-name="Path 889" d="M338.71,67.222l1.645-1.645a.768.768,0,0,0-1.086-1.086l-1.645,1.645a.768.768,0,0,0,1.086,1.086Zm0,0" transform="translate(-320.125 -60.975)" fill="#7c4dff"/>
  <path id="Path_890" data-name="Path 890" d="M388.015,208.867H386.37a.768.768,0,0,0,0,1.536h1.645a.768.768,0,0,0,0-1.536Zm0,0" transform="translate(-365.86 -198.174)" fill="#7c4dff"/>
  <path id="Path_891" data-name="Path 891" d="M210.4.768a.768.768,0,0,0-1.536,0V2.413a.768.768,0,0,0,1.536,0Zm0,0" transform="translate(-198.174)" fill="#7c4dff"/>
  <path id="Path_892" data-name="Path 892" d="M50.072,67.222a.768.768,0,1,0,1.086-1.086l-1.645-1.645a.768.768,0,0,0-1.086,1.086Zm0,0" transform="translate(-45.734 -60.975)" fill="#7c4dff"/>
  <path id="Path_893" data-name="Path 893" d="M3.181,209.635a.768.768,0,0,0-.768-.768H.768a.768.768,0,0,0,0,1.536H2.413A.768.768,0,0,0,3.181,209.635Zm0,0" transform="translate(0 -198.174)" fill="#7c4dff"/>
  <path id="Path_894" data-name="Path 894" d="M44.8,99.374a4.323,4.323,0,0,1,.447-1.9l2.409-4.812a4.16,4.16,0,0,0,.434-1.842,2.384,2.384,0,0,0-.667-1.662l-.643-.643a.512.512,0,0,0-.82.133l-4.37,8.74a.767.767,0,0,0-.081.343v5.851l-1.87,1.87a.768.768,0,0,0,0,1.086l3.29,3.29a.768.768,0,0,0,1.086,0l3.095-3.1a3.316,3.316,0,0,0,.979-2.364V97.9a.218.218,0,0,0-.218-.219,1.536,1.536,0,0,0-1.536,1.536v2.671a.768.768,0,0,1-.805.767.782.782,0,0,1-.731-.789V99.374Zm0,0" transform="translate(-37.399 -83.841)" fill="#7c4dff"/>
  <path id="Path_895" data-name="Path 895" d="M245.448,103.582V97.731a.767.767,0,0,0-.081-.343L241,88.648a.512.512,0,0,0-.82-.133l-.643.643a2.385,2.385,0,0,0-.667,1.662,4.16,4.16,0,0,0,.434,1.842l2.409,4.812a4.326,4.326,0,0,1,.447,1.9v2.488a.782.782,0,0,1-.731.789.768.768,0,0,1-.8-.767V99.213a1.536,1.536,0,0,0-1.536-1.536.219.219,0,0,0-.219.219v6.474a3.317,3.317,0,0,0,.98,2.364l3.095,3.1a.768.768,0,0,0,1.086,0l3.29-3.29a.768.768,0,0,0,0-1.086Zm0,0" transform="translate(-226.638 -83.841)" fill="#7c4dff"/>
</svg>
