<svg xmlns="http://www.w3.org/2000/svg" width="20.347" height="26.426" viewBox="0 0 20.347 26.426">
  <path id="prime-time" d="M90.258,26.131V21.48a1.868,1.868,0,0,1-1.418-.649l-2.473,2.134-3.205-4.823a.278.278,0,0,0-.462,0l-3.205,4.823-2.473-2.134a1.868,1.868,0,0,1-1.418.649v4.651a10.949,10.949,0,0,1,14.654,0ZM82.931,24.1A10.174,10.174,0,1,1,72.757,34.269,10.174,10.174,0,0,1,82.931,24.1Zm0,2.151a8.023,8.023,0,1,0,8.023,8.023,8.023,8.023,0,0,0-8.023-8.023Zm7.235,7.634a7.216,7.216,0,0,0-1.844-4.452l-.607.607a.389.389,0,0,1-.55-.55l.607-.607a7.217,7.217,0,0,0-4.452-1.844v.859a.389.389,0,0,1-.777,0v-.859a7.216,7.216,0,0,0-4.452,1.844l.607.607a.389.389,0,0,1-.55.55l-.607-.607A7.216,7.216,0,0,0,75.7,33.88h.859a.389.389,0,1,1,0,.777H75.7A7.216,7.216,0,0,0,77.54,39.11l.607-.607a.389.389,0,0,1,.55.55l-.607.607A7.216,7.216,0,0,0,82.542,41.5v-.859a.389.389,0,0,1,.777,0V41.5a7.216,7.216,0,0,0,4.452-1.844l-.607-.607a.389.389,0,0,1,.55-.55l.607.607a7.216,7.216,0,0,0,1.844-4.452h-.859a.389.389,0,1,1,0-.777ZM82.931,35.1a.833.833,0,0,0,.389-1.569V30.48a.389.389,0,0,0-.777,0v3.052a.834.834,0,0,0-.407.983l-1.83,1.83a.389.389,0,0,0,.55.55l1.83-1.83A.832.832,0,0,0,82.931,35.1ZM75.6,20.7a1.1,1.1,0,1,1,1.1-1.1A1.1,1.1,0,0,1,75.6,20.7Zm14.654,0a1.1,1.1,0,1,1,1.1-1.1A1.1,1.1,0,0,1,90.258,20.7Z" transform="translate(-72.757 -18.017)" fill="#7c4dff" fill-rule="evenodd"/>
</svg>
