<svg id="RAD-laugh" xmlns="http://www.w3.org/2000/svg" width="52.443" height="52.443" viewBox="0 0 52.443 52.443">
  <path id="Path_858" data-name="Path 858" d="M26.222,52.443A26.222,26.222,0,1,1,52.443,26.222,26.259,26.259,0,0,1,26.222,52.443Zm0-49.946A23.725,23.725,0,1,0,49.946,26.222,23.754,23.754,0,0,0,26.222,2.5Zm0,0" fill="#b5b5b5"/>
  <path id="Path_859" data-name="Path 859" d="M110.984,250.9A15,15,0,0,1,96,235.916v-1.248h29.968v1.248A15,15,0,0,1,110.984,250.9ZM98.56,237.165a12.486,12.486,0,0,0,24.848,0Zm0,0" transform="translate(-84.762 -207.197)" fill="#b5b5b5"/>
  <path id="Path_860" data-name="Path 860" d="M122.99,120.082l-3.606-3.621-3.606,3.621L114,118.3l5.385-5.369,5.385,5.369Zm0,0" transform="translate(-100.655 -99.713)" fill="#b5b5b5"/>
  <path id="Path_861" data-name="Path 861" d="M250.99,120.082l-3.606-3.621-3.606,3.621L242,118.3l5.385-5.369,5.385,5.369Zm0,0" transform="translate(-213.671 -99.713)" fill="#b5b5b5"/>
</svg>
