<svg xmlns="http://www.w3.org/2000/svg" width="24" height="24" viewBox="0 0 24 24">
  <g id="ruler_pen" data-name="ruler&amp;pen" transform="translate(-234 -318)">
    <path id="Vector" d="M10,17V3A2.652,2.652,0,0,0,7,0H3A2.652,2.652,0,0,0,0,3V17a2.652,2.652,0,0,0,3,3H7A2.652,2.652,0,0,0,10,17Z" transform="translate(245.47 320)" fill="none" stroke="#7455f6" stroke-linecap="round" stroke-width="1.5"/>
    <path id="Vector-2" data-name="Vector" d="M0,0H5" transform="translate(245.47 324)" fill="none" stroke="#7455f6" stroke-linecap="round" stroke-width="1.5"/>
    <path id="Vector-3" data-name="Vector" d="M0,0H4" transform="translate(245.47 336)" fill="none" stroke="#7455f6" stroke-linecap="round" stroke-width="1.5"/>
    <path id="Vector-4" data-name="Vector" d="M0,0,5,.05" transform="translate(245.47 331.95)" fill="none" stroke="#7455f6" stroke-linecap="round" stroke-width="1.5"/>
    <path id="Vector-5" data-name="Vector" d="M0,0H3" transform="translate(245.47 328)" fill="none" stroke="#7455f6" stroke-linecap="round" stroke-width="1.5"/>
    <path id="Vector-6" data-name="Vector" d="M2.96,0A2.964,2.964,0,0,0,0,2.95V15.91a3.532,3.532,0,0,0,.42,1.52l.82,1.36c.94,1.57,2.49,1.57,3.43,0l.82-1.36a3.532,3.532,0,0,0,.42-1.52V2.95A2.962,2.962,0,0,0,2.96,0Z" transform="translate(236.53 320)" fill="none" stroke="#7455f6" stroke-linecap="round" stroke-width="1.5"/>
    <path id="Vector-7" data-name="Vector" d="M5.91,0H0" transform="translate(236.53 325)" fill="none" stroke="#7455f6" stroke-linecap="round" stroke-width="1.5"/>
    <path id="Vector-8" data-name="Vector" d="M0,0H24V24H0Z" transform="translate(234 318)" fill="none" opacity="0"/>
  </g>
</svg>
