<svg id="ruler" xmlns="http://www.w3.org/2000/svg" width="24" height="24" viewBox="0 0 24 24">
  <path id="Vector" d="M3,10H17a2.652,2.652,0,0,0,3-3V3a2.652,2.652,0,0,0-3-3H3A2.652,2.652,0,0,0,0,3V7A2.652,2.652,0,0,0,3,10Z" transform="translate(2 7)" fill="none" stroke="#7455f6" stroke-linecap="round" stroke-width="1.5"/>
  <path id="Vector-2" data-name="Vector" d="M0,0V5" transform="translate(18 7)" fill="none" stroke="#7455f6" stroke-linecap="round" stroke-width="1.5"/>
  <path id="Vector-3" data-name="Vector" d="M0,0V4" transform="translate(6 7)" fill="none" stroke="#7455f6" stroke-linecap="round" stroke-width="1.5"/>
  <path id="Vector-4" data-name="Vector" d="M.05,0,0,5" transform="translate(10 7)" fill="none" stroke="#7455f6" stroke-linecap="round" stroke-width="1.5"/>
  <path id="Vector-5" data-name="Vector" d="M0,0V3" transform="translate(14 7)" fill="none" stroke="#7455f6" stroke-linecap="round" stroke-width="1.5"/>
  <path id="Vector-6" data-name="Vector" d="M0,0H24V24H0Z" fill="none" opacity="0"/>
</svg>
