<svg xmlns="http://www.w3.org/2000/svg" width="17.906" height="16" viewBox="0 0 17.906 16">
  <g id="tag" transform="translate(0 -23.224)">
    <g id="Group_22" data-name="Group 22" transform="translate(0 23.224)">
      <g id="Group_21" data-name="Group 21">
        <path id="Path_92" data-name="Path 92" d="M13.967,23.224h-5.5a1.313,1.313,0,0,0-.928.385L.385,30.764a1.314,1.314,0,0,0,0,1.857l5.5,5.5a1.313,1.313,0,0,0,1.857,0L14.9,30.964a1.317,1.317,0,0,0,.385-.93v-5.5A1.313,1.313,0,0,0,13.967,23.224Zm-2.3,4.6a.985.985,0,1,1,.985-.985A.985.985,0,0,1,11.669,27.82Z" transform="translate(0 -23.224)" fill="#b5b5b5"/>
      </g>
    </g>
    <g id="Group_24" data-name="Group 24" transform="translate(8.986 24.537)">
      <g id="Group_23" data-name="Group 23">
        <path id="Path_93" data-name="Path 93" d="M226.6,55.224v6.112a1.14,1.14,0,0,1-.335.808l-7.272,7.272.112.112a1.313,1.313,0,0,0,1.857,0l6.567-6.565a1.311,1.311,0,0,0,.385-.928v-5.5A1.313,1.313,0,0,0,226.6,55.224Z" transform="translate(-218.988 -55.224)" fill="#b5b5b5"/>
      </g>
    </g>
  </g>
</svg>
