<svg xmlns="http://www.w3.org/2000/svg" width="26.016" height="26.426" viewBox="0 0 26.016 26.426">
  <g id="telepathy" transform="translate(-3.966)">
    <g id="Group_211" data-name="Group 211" transform="translate(7.754 10.046)">
      <g id="Group_210" data-name="Group 210">
        <path id="Path_896" data-name="Path 896" d="M79.951,201.45a7.688,7.688,0,0,1-.773-5.823.779.779,0,1,0-1.506-.4,9.247,9.247,0,0,0,.931,7.008.779.779,0,0,0,1.348-.783Z" transform="translate(-77.361 -194.646)" fill="#7c4dff"/>
      </g>
    </g>
    <g id="Group_213" data-name="Group 213" transform="translate(3.966)">
      <g id="Group_212" data-name="Group 212">
        <path id="Path_897" data-name="Path 897" d="M25.113,2.86A13.01,13.01,0,0,0,5.923,19.873a.779.779,0,0,0,1.323-.824A11.452,11.452,0,0,1,16.974,1.559a11.324,11.324,0,0,1,7.163,2.516.779.779,0,0,0,.976-1.215Z" transform="translate(-3.966)" fill="#7c4dff"/>
      </g>
    </g>
    <g id="Group_215" data-name="Group 215" transform="translate(8.075 7.71)">
      <g id="Group_214" data-name="Group 214">
        <path id="Path_898" data-name="Path 898" d="M95.574,158.983a5.3,5.3,0,1,0-6.195,0,8.914,8.914,0,0,0-5.8,8.343.779.779,0,0,0,.779.779H100.6a.779.779,0,0,0,.779-.779A8.914,8.914,0,0,0,95.574,158.983Z" transform="translate(-83.578 -149.39)" fill="#7c4dff"/>
      </g>
    </g>
    <g id="Group_217" data-name="Group 217" transform="translate(9.627 3.788)">
      <g id="Group_216" data-name="Group 216">
        <path id="Path_899" data-name="Path 899" d="M121,73.4a9.186,9.186,0,0,0-7.173,3.427.779.779,0,0,0,1.212.98,7.662,7.662,0,0,1,12.591,8.655.779.779,0,1,0,1.348.783A9.222,9.222,0,0,0,121,73.4Z" transform="translate(-113.658 -73.396)" fill="#7c4dff"/>
      </g>
    </g>
    <g id="Group_219" data-name="Group 219" transform="translate(25.96 4.867)">
      <g id="Group_218" data-name="Group 218">
        <path id="Path_900" data-name="Path 900" d="M431.5,94.6a.779.779,0,0,0-1.244.939,11.456,11.456,0,0,1,.584,12.934.779.779,0,1,0,1.323.824,13.015,13.015,0,0,0-.664-14.7Z" transform="translate(-430.101 -94.292)" fill="#7c4dff"/>
      </g>
    </g>
  </g>
</svg>
