<svg xmlns="http://www.w3.org/2000/svg" width="22.635" height="26.426" viewBox="0 0 22.635 26.426">
  <g id="yoga-posture" transform="translate(-34.764)">
    <g id="_x32_7_48_" transform="translate(34.764 0)">
      <g id="Group_220" data-name="Group 220" transform="translate(0 0)">
        <path id="Path_901" data-name="Path 901" d="M170.766,8.384h.028a4.192,4.192,0,0,0,0-8.384h-.028a4.192,4.192,0,0,0,0,8.384Z" transform="translate(-159.387 0)" fill="#7c4dff"/>
        <path id="Path_902" data-name="Path 902" d="M56.672,169.146l-4.727-3.437-1.495-3.651a1.762,1.762,0,0,0-1.671-1.093v0h-5.4v0a1.762,1.762,0,0,0-1.671,1.093l-1.495,3.651-4.727,3.437A1.763,1.763,0,1,0,37.564,172l5.111-3.716-.13,1.345-4.833,4.9a2.414,2.414,0,0,0,1.741,4.087h2.31a3.015,3.015,0,0,1-.975-2.241,2.848,2.848,0,0,1,2.743-2.936h2.631a2.453,2.453,0,0,1,1.546.7H43.532a2.236,2.236,0,0,0,0,4.462h4.045c.045,0,.092,0,.136-.009H52.6a2.414,2.414,0,0,0,1.741-4.087l-4.728-4.9h0l-.128-1.321L54.6,172a1.763,1.763,0,1,0,2.074-2.852Z" transform="translate(-34.764 -152.187)" fill="#7c4dff"/>
      </g>
    </g>
  </g>
</svg>
